<?xml version="1.0" encoding="utf-8"?><svg xmlns="http://www.w3.org/2000/svg" xmlns:xlink="http://www.w3.org/1999/xlink" width="1464" height="808" preserveAspectRatio="xMidYMid" viewBox="0 0 1464 808" style="z-index:1;margin-right:-2px;display:block;background-repeat-y:initial;background-repeat-x:initial;background-color:rgb(7, 6, 22);animation-play-state:paused" ><g transform="translate(732,404) scale(1,1) translate(-732,-404)" style="transform:matrix(1, 0, 0, 1, 0, 0);animation-play-state:paused" ><defs style="animation-play-state:paused" ><path id="path-gj5om7ymvru-1" d="M-35 -35L35 -35L35 35L-35 35Z" fill="none" stroke="inherit" stroke-width="4.333333333333334" transform="scale(0.3)" style="transform:matrix(0.3, 0, 0, 0.3, 0, 0);animation-play-state:paused" ></path>

  
<path id="path-gj5om7ymvru-2" d="M0 -37A37 37 0 0 1 0 37A37 37 0 0 1 0 -37" fill="none" stroke="inherit" stroke-width="4.333333333333334" transform="scale(0.3)" style="transform:matrix(0.3, 0, 0, 0.3, 0, 0);animation-play-state:paused" ></path>

  
<path id="path-gj5om7ymvru-3" d="M0 -34.641L40 34.641L-40 34.641Z" fill="none" stroke="inherit" stroke-width="4.333333333333334" transform="scale(0.3)" style="transform:matrix(0.3, 0, 0, 0.3, 0, 0);animation-play-state:paused" ></path></defs>
<path id="path0" d="M 118.2253963182498 116.69652651444085
c 0 56.74026915646633 -13.883257346794952 16.29773688536799 -30.180994232162945 16.29773688536799
S 57.86340785392392 173.43679567090717 57.86340785392392 116.69652651444085
s 13.883257346794952 -16.29773688536799 30.180994232162945 -16.29773688536799
S 118.2253963182498 59.956257357974515 118.2253963182498 116.69652651444085
z" fill="none" stroke="none" style="animation-play-state:paused" ></path>


<use xlink:href="#path-gj5om7ymvru-1" x="0" y="0" stroke="#ddeeff" transform="translate(117.55621337890625 134.10549926757812)" style="animation-play-state:paused" ></use>
<path id="path1" d="M 151.91270974049405 302.52852137290876
c 0 54.17687923771574 -13.256044919866614 15.56144403636516 -28.817488956231774 15.56144403636516
S 94.2777318280305 356.7054006106245 94.2777318280305 302.52852137290876
s 13.256044919866614 -15.56144403636516 28.817488956231774 -15.56144403636516
S 151.91270974049405 248.351642135193 151.91270974049405 302.52852137290876
z" fill="none" stroke="none" style="animation-play-state:paused" ></path>


<use xlink:href="#path-gj5om7ymvru-3" x="0" y="0" stroke="#ddeeff" transform="translate(149.0737762451172 329.0225524902344)" style="animation-play-state:paused" ></use>
<path id="path2" d="M 246.03234126189236 272.1830061999497
c 0 25.701768641920836 -6.288730625150842 7.382422907785773 -13.671153532936614 7.382422907785773
S 218.69003419601913 297.8847748418706 218.69003419601913 272.1830061999497
s 6.288730625150842 -7.382422907785773 13.671153532936614 -7.382422907785773
S 246.03234126189236 246.48123755802888 246.03234126189236 272.1830061999497
z" fill="none" stroke="none" style="animation-play-state:paused" ></path>


<use xlink:href="#path-gj5om7ymvru-3" x="0" y="0" stroke="#ddeeff" transform="translate(218.7130584716797 269.6527099609375)" style="animation-play-state:paused" ></use>
<path id="path3" d="M 340.27532961720584 566.1916354327931
c 0 31.133378177451316 -7.617741468950853 8.942566072246654 -16.560307541197506 8.942566072246654
S 307.1547145348108 597.3250136102444 307.1547145348108 566.1916354327931
s 7.617741468950853 -8.942566072246654 16.560307541197506 -8.942566072246654
S 340.27532961720584 535.0582572553418 340.27532961720584 566.1916354327931
z" fill="none" stroke="none" style="animation-play-state:paused" ></path>


<use xlink:href="#path-gj5om7ymvru-3" x="0" y="0" stroke="#bbddff" transform="translate(325.77545166015625 575.5017700195312)" style="animation-play-state:paused" ></use>
<path id="path4" d="M 388.3273196350458 726.0278605855184
c 0 25.176309927402766 -6.160160939683655 7.231493277019944 -13.3916542167036 7.231493277019944
S 361.54401120163857 751.2041705129211 361.54401120163857 726.0278605855184
s 6.160160939683655 -7.231493277019944 13.3916542167036 -7.231493277019944
S 388.3273196350458 700.8515506581157 388.3273196350458 726.0278605855184
z" fill="none" stroke="none" style="animation-play-state:paused" ></path>


<use xlink:href="#path-gj5om7ymvru-3" x="0" y="0" stroke="#aabbcc" transform="translate(380.9278259277344 715.6766967773438)" style="animation-play-state:paused" ></use>
<path id="path5" d="M 493.9848444137027 746.2527807932273
c 0 32.598154559573736 -7.976144200746765 9.363299713920116 -17.33944391466688 9.363299713920116
S 459.3059565843689 778.850935352801 459.3059565843689 746.2527807932273
s 7.976144200746765 -9.363299713920116 17.33944391466688 -9.363299713920116
S 493.9848444137027 713.6546262336536 493.9848444137027 746.2527807932273
z" fill="none" stroke="none" style="animation-play-state:paused" ></path>


<use xlink:href="#path-gj5om7ymvru-1" x="0" y="0" stroke="#aabbcc" transform="translate(491.0849914550781 763.49267578125)" style="animation-play-state:paused" ></use>
<path id="path6" d="M 553.8737289002147 751.6887174253951
c 0 54.85293972817276 -13.421463976042268 15.755631624049622 -29.177095600091892 15.755631624049622
S 495.5195377000309 806.5416571535678 495.5195377000309 751.6887174253951
s 13.421463976042268 -15.755631624049622 29.177095600091892 -15.755631624049622
S 553.8737289002147 696.8357776972224 553.8737289002147 751.6887174253951
z" fill="none" stroke="none" style="animation-play-state:paused" ></path>


<use xlink:href="#path-gj5om7ymvru-1" x="0" y="0" stroke="#aabbcc" transform="translate(519.9856567382812 734.8650512695312)" style="animation-play-state:paused" ></use>
<path id="path7" d="M 614.0880469356493 486.4361729658121
c 0 20.12192527951793 -4.923449802435238 5.779701941989193 -10.703151744424432 5.779701941989193
S 592.6817434468005 506.55809824533003 592.6817434468005 486.4361729658121
s 4.923449802435238 -5.779701941989193 10.703151744424432 -5.779701941989193
S 614.0880469356493 466.31424768629415 614.0880469356493 486.4361729658121
z" fill="none" stroke="none" style="animation-play-state:paused" ></path>


<use xlink:href="#path-gj5om7ymvru-3" x="0" y="0" stroke="#aabbcc" transform="translate(600.8453369140625 493.02569580078125)" style="animation-play-state:paused" ></use>
<path id="path8" d="M 697.1910628244096 607.5868353666585
c 0 26.11546540626274 -6.389954301532372 7.501250701798872 -13.891205003331244 7.501250701798872
S 669.4086528177471 633.7023007729213 669.4086528177471 607.5868353666585
s 6.389954301532372 -7.501250701798872 13.891205003331244 -7.501250701798872
S 697.1910628244096 581.4713699603958 697.1910628244096 607.5868353666585
z" fill="none" stroke="none" style="animation-play-state:paused" ></path>


<use xlink:href="#path-gj5om7ymvru-3" x="0" y="0" stroke="#aabbcc" transform="translate(693.6433715820312 621.3955688476562)" style="animation-play-state:paused" ></use>
<path id="path9" d="M 794.1599067543913 140.7123738137439
c 0 31.721800367067885 -7.761717111091078 9.111580956498223 -16.8732980675893 9.111580956498223
S 760.4133106192127 172.4341741808118 760.4133106192127 140.7123738137439
s 7.761717111091078 -9.111580956498223 16.8732980675893 -9.111580956498223
S 794.1599067543913 108.99057344667602 794.1599067543913 140.7123738137439
z" fill="none" stroke="none" style="animation-play-state:paused" ></path>


<use xlink:href="#path-gj5om7ymvru-1" x="0" y="0" stroke="#bbddff" transform="translate(794.0486450195312 134.84103393554688)" style="animation-play-state:paused" ></use>
<path id="path10" d="M 852.5919717216173 123.50662673586316
c 0 28.173395139714 -6.893490300142786 8.092358178428489 -14.985848478571276 8.092358178428489
S 822.6202747644747 151.68002187557715 822.6202747644747 123.50662673586316
s 6.893490300142786 -8.092358178428489 14.985848478571276 -8.092358178428489
S 852.5919717216173 95.33323159614916 852.5919717216173 123.50662673586316
z" fill="none" stroke="none" style="animation-play-state:paused" ></path>


<use xlink:href="#path-gj5om7ymvru-1" x="0" y="0" stroke="#ddeeff" transform="translate(852.288330078125 131.85122680664062)" style="animation-play-state:paused" ></use>
<path id="path11" d="M 933.0186038713542 467.2976378308478
c 0 25.36615903188798 -6.206613380142803 7.286024402776335 -13.49263778291914 7.286024402776335
S 906.033328305516 492.6637968627358 906.033328305516 467.2976378308478
s 6.206613380142803 -7.286024402776335 13.49263778291914 -7.286024402776335
S 933.0186038713542 441.9314787989598 933.0186038713542 467.2976378308478
z" fill="none" stroke="none" style="animation-play-state:paused" ></path>


<use xlink:href="#path-gj5om7ymvru-2" x="0" y="0" stroke="#ddeeff" transform="translate(922.1456298828125 459.31060791015625)" style="animation-play-state:paused" ></use>
<path id="path12" d="M 1026.8193676821422 660.7566099878751
c 0 58.83504533776115 -14.395808965622408 16.899427916165436 -31.295236881787844 16.899427916165436
S 964.2288939185664 719.5916553256362 964.2288939185664 660.7566099878751
s 14.395808965622408 -16.899427916165436 31.295236881787844 -16.899427916165436
S 1026.8193676821422 601.921564650114 1026.8193676821422 660.7566099878751
z" fill="none" stroke="none" style="animation-play-state:paused" ></path>


<use xlink:href="#path-gj5om7ymvru-2" x="0" y="0" stroke="#ddeeff" transform="translate(1023.2335815429688 690.382568359375)" style="animation-play-state:paused" ></use>
<path id="path13" d="M 1125.3085029349993 74.8645243162634
c 0 57.84779816549106 -14.154248487301002 16.615856919875093 -30.770105407176093 16.615856919875093
S 1063.7682921206472 132.71232248175446 1063.7682921206472 74.8645243162634
s 14.154248487301002 -16.615856919875093 30.770105407176093 -16.615856919875093
S 1125.3085029349993 17.016726150772342 1125.3085029349993 74.8645243162634
z" fill="none" stroke="none" style="animation-play-state:paused" ></path>


<use xlink:href="#path-gj5om7ymvru-1" x="0" y="0" stroke="#ddeeff" transform="translate(1125.09228515625 85.87255096435547)" style="animation-play-state:paused" ></use>
<path id="path14" d="M 1204.050942634505 465.80187254031847
c 0 50.72200033783282 -12.410702210320796 14.569085203420066 -26.979787413740862 14.569085203420066
S 1150.091367807023 516.5238728781513 1150.091367807023 465.80187254031847
s 12.410702210320796 -14.569085203420066 26.979787413740862 -14.569085203420066
S 1204.050942634505 415.07987220248566 1204.050942634505 465.80187254031847
z" fill="none" stroke="none" style="animation-play-state:paused" ></path>


<use xlink:href="#path-gj5om7ymvru-2" x="0" y="0" stroke="#bbddff" transform="translate(1203.958984375 472.75738525390625)" style="animation-play-state:paused" ></use>
<path id="path15" d="M 1278.646447029237 518.4018039839649
c 0 50.201935085285406 -12.283452201718767 14.419704758539424 -26.70315696025819 14.419704758539424
S 1225.2401331087206 568.6037390692503 1225.2401331087206 518.4018039839649
s 12.283452201718767 -14.419704758539424 26.70315696025819 -14.419704758539424
S 1278.646447029237 468.1998688986795 1278.646447029237 518.4018039839649
z" fill="none" stroke="none" style="animation-play-state:paused" ></path>


<use xlink:href="#path-gj5om7ymvru-3" x="0" y="0" stroke="#aabbcc" transform="translate(1228.3592529296875 543.7655639648438)" style="animation-play-state:paused" ></use>
<path id="path16" d="M 1359.8428027870978 737.8635582441132
c 0 54.56532798381564 -13.351090889657018 15.673019740032153 -29.02411062968917 15.673019740032153
S 1301.7945815277194 792.4288862279288 1301.7945815277194 737.8635582441132
s 13.351090889657018 -15.673019740032153 29.02411062968917 -15.673019740032153
S 1359.8428027870978 683.2982302602975 1359.8428027870978 737.8635582441132
z" fill="none" stroke="none" style="animation-play-state:paused" ></path>


<use xlink:href="#path-gj5om7ymvru-2" x="0" y="0" stroke="#bbddff" transform="translate(1359.6427001953125 748.1599731445312)" style="animation-play-state:paused" ></use>
<path id="path17" d="M 1396.5083470509917 177.55880076351536
c 0 57.91763701353153 -14.171336716076862 16.635917014525017 -30.80725373060188 16.635917014525017
S 1334.893839589788 235.4764377770469 1334.893839589788 177.55880076351536
s 14.171336716076862 -16.635917014525017 30.80725373060188 -16.635917014525017
S 1396.5083470509917 119.64116374998383 1396.5083470509917 177.55880076351536
z" fill="none" stroke="none" style="animation-play-state:paused" ></path>


<use xlink:href="#path-gj5om7ymvru-1" x="0" y="0" stroke="#bbddff" transform="translate(1334.89501953125 178.19097900390625)" style="animation-play-state:paused" ></use></g></svg>